<?xml version="1.0" encoding="UTF-8"?><svg id="a" xmlns="http://www.w3.org/2000/svg" viewBox="0 0 452.25 242.48"><defs><style>.b{fill:#fff;}.c{letter-spacing:-.07em;}.d{fill:#f291b9;}.e{font-size:102.78px;letter-spacing:0em;}.f{letter-spacing:0em;}.g{font-size:128.48px;}.h{letter-spacing:.02em;}.i{letter-spacing:-.01em;}.j{fill:#ffd7d7;font-family:BodoniURW-Bol, Bodoni URW;}.j,.k{font-size:48.11px;}.l{letter-spacing:0em;}.k,.m{font-family:MemoriamPro, Memoriam Pro;}.n{letter-spacing:.02em;}.o{letter-spacing:0em;}</style></defs><path class="b" d="M257,127.24s-9.93-17.36-18.6-9.58c-2.58,2.31-2.51,6.31,.29,8.35,1.81,1.32,4.76,2.57,9.54,3.37,1.42,.24,2.88,.27,4.29-.02s3.3-.9,4.48-2.12Z"/><ellipse class="d" cx="226.12" cy="121.24" rx="226.12" ry="121.24"/><text class="m" transform="translate(123.5 127.28)"><tspan class="g" x="0" y="0">L</tspan><tspan class="e" x="81.45" y="0">ook</tspan></text><text class="k" transform="translate(71.01 95.54)"><tspan x="0" y="0">A</tspan></text><text class="j" transform="translate(40.7 182.92)"><tspan x="0" y="0">I</tspan><tspan class="n" x="20.21" y="0">N</tspan><tspan class="o" x="54.85" y="0">T</tspan><tspan x="85.35" y="0">O </tspan><tspan class="l" x="135.14" y="0">T</tspan><tspan x="165.79" y="0">HE </tspan><tspan class="c" x="250.22" y="0">P</tspan><tspan class="h" x="281.11" y="0">A</tspan><tspan class="i" x="315.03" y="0">S</tspan><tspan class="f" x="343.17" y="0">T </tspan></text></svg>